<svg width="47" height="20" viewBox="0 0 47 20" fill="none" xmlns="http://www.w3.org/2000/svg">
<path d="M23.5 15.2651C8 15.2651 2.5 9.26514 2.5 9.26514C2.5 9.26514 7 17.7651 23.5 17.7651C40 17.7651 44.9312 9.26514 44.9312 9.26514C44.9312 9.26514 39 15.2651 23.5 15.2651Z" fill="#EE8021"/>
<path d="M2.11865 9.00005L4.79098 3.42911H2.34494L2.78673 1.87744H7.46331L4.79098 7.4376H7.23702L6.79522 9.00005H2.11865Z" fill="#184EA5"/>
<path d="M8.01151 9.00005V1.87744H12.2463L12.6881 3.42911H9.78947V4.54977H12.4618L12.02 6.10144H9.78947V7.4376H12.9144L12.4618 9.00005H8.01151Z" fill="#184EA5"/>
<path d="M13.4624 9.00005V1.87744H15.2404L17.4709 4.32348V1.87744H19.2489V9.00005H17.4709V6.76952L15.2404 4.32348V9.00005H13.4624Z" fill="#184EA5"/>
<path d="M20.2495 9.00005V3.6554H22.0383V7.4376H23.3744C23.7695 7.4376 23.9671 7.34063 23.9671 7.14667C23.9671 6.96707 23.7983 6.69409 23.4606 6.32773C23.1589 6.00446 22.7566 5.6345 22.2538 5.21785C22.534 5.03826 22.8177 4.81197 23.1051 4.53899C23.4571 4.20136 23.6331 3.94634 23.6331 3.77393C23.6331 3.68054 23.572 3.60152 23.4499 3.53687C23.3349 3.46503 23.1589 3.42911 22.9219 3.42911H19.8077L20.2495 1.87744H23.3744C24.1575 1.87744 24.7214 1.99956 25.0662 2.24381C25.4182 2.48087 25.5942 2.87597 25.5942 3.42911C25.5942 3.84577 25.4936 4.19777 25.2925 4.48511C25.1273 4.72218 24.8579 4.96642 24.4843 5.21785C25.0015 5.60577 25.3751 5.94699 25.605 6.24152C25.8995 6.62226 26.0468 7.02095 26.0468 7.4376C26.0468 8.07695 25.8708 8.50438 25.5188 8.71989C25.2171 8.90667 24.6495 9.00005 23.8162 9.00005H20.2495Z" fill="#184EA5"/>
<path d="M26.5951 9.00005V1.87744H30.8298L31.2716 3.42911H28.373V4.54977H31.0453L30.6035 6.10144H28.373V7.4376H31.4979L31.0453 9.00005H26.5951Z" fill="#184EA5"/>
<path d="M32.4877 9.00005V3.6554H34.2765V5.43336C34.6357 5.25377 34.9841 5.01671 35.3217 4.72218C35.7312 4.36299 35.9359 4.07565 35.9359 3.86014C35.9359 3.73083 35.8569 3.62667 35.6988 3.54765C35.5408 3.46862 35.2894 3.42911 34.9446 3.42911H32.0459L32.4877 1.87744H35.1601C35.9646 1.87744 36.5932 2.00675 37.0458 2.26536C37.5702 2.56707 37.8324 3.03042 37.8324 3.6554C37.8324 4.06487 37.6636 4.47075 37.326 4.87303C37.2469 4.9736 36.8985 5.31124 36.2807 5.88593C36.5322 6.3816 36.8446 6.89883 37.2182 7.4376C37.642 8.04103 38.0695 8.56185 38.5005 9.00005L36.9165 10.0992C36.3418 9.40952 35.7994 8.61932 35.2894 7.72854C34.8799 7.01018 34.5423 6.32054 34.2765 5.65965V9.00005H32.4877Z" fill="#184EA5"/>
<path d="M43.3103 7.3514L43.2995 5.65965H42.4052L43.1271 4.11875L45.0775 4.0972L45.099 9.00005H43.2995C41.9921 9.00005 40.9577 8.60854 40.1962 7.82552C39.4419 7.03532 39.0648 6.01524 39.0648 4.76528C39.0648 3.79548 39.309 3.06275 39.7975 2.56707C40.2573 2.10732 40.9038 1.87744 41.7371 1.87744H44.6357L45.0775 3.42911H42.1789C41.7766 3.42911 41.4713 3.54765 41.263 3.78471C41.0546 4.01458 40.9505 4.31271 40.9505 4.67907C40.9505 5.29687 41.1696 5.88234 41.6078 6.43548C42.0891 7.04609 42.6566 7.3514 43.3103 7.3514Z" fill="#184EA5"/>
</svg>
